<?xml version="1.0" encoding="UTF-8"?>
<svg id="Layer_1" xmlns="http://www.w3.org/2000/svg" version="1.1" viewBox="0 0 886.08 126.22">
  <!-- Generator: Adobe Illustrator 29.4.0, SVG Export Plug-In . SVG Version: 2.1.0 Build 152)  -->
  <defs>
    <style>
      .st0 {
        fill: #fff;
      }

      .st1 {
        fill: #d80d83;
      }
    </style>
  </defs>
  <g>
    <path class="st0" d="M86.76,44.41c0,23.18-17.9,40.44-41.51,40.44h-19.81v36.71H0V3.96h45.25c23.58,0,41.51,17.23,41.51,40.44ZM60.98,44.41c0-9.77-6.75-16.88-16.85-16.88h-18.7v33.75h18.7c10.09,0,16.85-7.1,16.85-16.88Z"/>
    <path class="st0" d="M136.22,81.43h-16.32v40.14h-25.44V3.96h47.47c23.55,0,41.11,16.22,41.11,38.9,0,15.38-8.43,27.96-21.44,34.23,0,0,.82,11.02,3.69,14.25,9.17,10.33,22.33,8.67,22.33,8.67v21.55s-22.77,4.07-34.94-7.43c-15.25-14.41-16.46-32.7-16.46-32.7ZM119.9,57.92h20.36c10.65,0,17-6.4,17-15.23s-6.35-15.23-17-15.23h-20.36v30.45Z"/>
    <path class="st0" d="M270.17,97.89v23.67h-72.45V3.96h70.6v23.5h-45.16v23.23h40.79v23.03h-40.79v24.16h47.01Z"/>
    <path class="st0" d="M387.42,62.63c0,34.1-25.17,58.94-59.64,58.94h-44.49V3.96h44.49c34.61,0,59.64,24.7,59.64,58.66ZM361.37,62.63c0-20.69-14.02-35.05-34.23-35.05h-18.4v70.38h18.4c20.21,0,34.23-14.77,34.23-35.33Z"/>
    <path class="st0" d="M395.61,3.96h25.44v117.6h-25.44V3.96Z"/>
    <path class="st0" d="M491.71,124.1c-34.53,0-60.72-26.47-60.72-61.2S457.18,1.43,491.71,1.43c28.62,0,51.45,18.94,56.9,46.84h-25.5c-4.81-13.88-16.57-22.56-31.4-22.56-19.9,0-34.94,16.04-34.94,37.19s15.04,36.91,34.94,36.91c15.47,0,27.4-9.35,31.63-24.24h25.64c-5.32,29.08-28.15,48.52-57.27,48.52h0Z"/>
    <path class="st0" d="M636.1,27.58h-32.7v93.99h-25.45V27.58h-32.7V3.96h90.84v23.61Z"/>
  </g>
  <path class="st1" d="M870.51,74.13c-4.52,8.89-19.41,38.41-26.64,42.54-11.66,6.65-28.77,2.94-24.67-13.37.25-.98,12.09-9.75,15.14-13.46,16.06-19.59,28.68-45.06,23.78-71.24-1.08-5.75-9.65-11.64-15.02-13.1-24.85-6.74-44.02,26.1-48.85,46.41-4.19,17.62,1.84,53.37-14.87,62.95-25.01,14.32-17.81-28.66-15.74-41.67,2.55-16.05,9.04-31.03,11.38-47.02-4.41-4.89-9.4-9.97-16.34-7.84-13.52,4.14-28.99,52.74-35.26,66.54-1.63,3.59-2.87,11.72-7.93,10.41.04-18.87,1.53-38.34,4.58-57.02,1.9-11.67,17.14-39.27-3.57-38.24-11.46.57-22.16,24.13-26.65,33.96-9.28,20.32-14.85,42.37-21.96,63.47-3.84.18-4.58,1.08-4.31-3.21,1.81-28.58,10.09-56.71,10.83-85.43-6.6-.24-16.4.55-20.45,6.59-4.68,6.98-9.04,54.56-9.8,65.87-.47,6.98-2.8,33.43.52,37.27,4.4,3.85,17.84,3.17,21.23-.92l31.19-78.51c3.63,2.57,3.32,5.46,3.12,9.38-.54,10.63-5.66,25.39-6.33,37.12-.64,11.33-3.22,38.19,13.91,35.72,11.64-1.67,22.33-47.13,33.61-54.12-4.69,43.09,13.05,73.24,55.1,41.07,20.9,29.81,55.7,19.97,69.28-10.76l20.32-44.67c-1.05-2.44-2.05-4.9-2.98-7.37-4.08,10.32-8.23,20.11-12.59,28.68ZM815.2,62.06c.81-8.56,8.42-40.29,15.25-44.16,13.03-7.38,10.95,16.57,10.15,24.15-1.77,16.68-11.32,38.4-22.43,51.03-4.96.04-3.4-26.45-2.96-31.03Z"/>
</svg>